<?xml version="1.0" encoding="UTF-8"?>
<svg xmlns="http://www.w3.org/2000/svg" xmlns:xlink="http://www.w3.org/1999/xlink" width="200px" height="39px" viewBox="0 0 201 39" version="1.1">
    <g id="surface1">
        <path style=" stroke:none;fill-rule:nonzero;fill:rgb(10.588235%,10.588235%,10.588235%);fill-opacity:1;" d="M 43.28125 13.816406 L 54.972656 13.816406 L 54.972656 15.199219 L 51.65625 15.199219 L 55.496094 24.8125 L 60.226562 13.816406 L 61.671875 13.816406 L 67.058594 24.8125 L 69.652344 17.109375 C 69.882812 16.480469 69.980469 16.019531 69.980469 15.757812 C 69.980469 15.363281 69.523438 15.164062 68.570312 15.164062 L 67.058594 15.164062 L 67.058594 13.78125 L 74.25 13.78125 L 74.25 15.199219 L 73.429688 15.199219 C 72.742188 15.199219 72.246094 15.296875 71.984375 15.496094 C 71.722656 15.691406 71.425781 16.316406 71.066406 17.339844 L 65.746094 32.351562 L 64.203125 32.351562 L 58.78125 20.925781 L 53.886719 32.386719 L 52.378906 32.386719 L 45.382812 15.199219 L 43.246094 15.199219 L 43.246094 13.816406 Z M 43.28125 13.816406 "/>
        <path style=" stroke:none;fill-rule:nonzero;fill:rgb(10.588235%,10.588235%,10.588235%);fill-opacity:1;" d="M 81.773438 13.261719 L 81.773438 30.449219 L 83.515625 30.449219 L 83.515625 31.796875 L 73.5625 31.796875 L 73.5625 30.449219 L 75.695312 30.449219 L 75.695312 15.203125 L 73.5625 15.203125 L 73.5625 13.820312 L 76.386719 13.820312 C 77.863281 13.820312 79.082031 13.722656 80.097656 13.558594 C 81.082031 13.359375 81.640625 13.261719 81.773438 13.261719 Z M 75.304688 5.65625 C 75.304688 4.734375 75.632812 3.976562 76.253906 3.351562 C 76.878906 2.726562 77.636719 2.394531 78.554688 2.394531 C 79.472656 2.394531 80.230469 2.726562 80.886719 3.351562 C 81.542969 3.976562 81.871094 4.765625 81.871094 5.65625 C 81.871094 6.542969 81.542969 7.335938 80.886719 7.960938 C 80.230469 8.617188 79.472656 8.949219 78.554688 8.949219 C 77.667969 8.949219 76.914062 8.617188 76.253906 7.960938 C 75.597656 7.300781 75.304688 6.542969 75.304688 5.65625 Z M 75.304688 5.65625 "/>
        <path style=" stroke:none;fill-rule:nonzero;fill:rgb(10.588235%,10.588235%,10.588235%);fill-opacity:1;" d="M 97.144531 13.257812 L 97.144531 18.820312 L 95.800781 18.820312 C 94.980469 16.023438 93.171875 14.609375 90.414062 14.609375 C 89.363281 14.609375 88.476562 14.871094 87.71875 15.363281 C 86.964844 15.859375 86.570312 16.484375 86.570312 17.207031 C 86.570312 17.835938 86.867188 18.296875 87.457031 18.625 C 88.046875 18.953125 89.527344 19.25 91.957031 19.480469 C 94.386719 19.710938 96.0625 20.335938 97.046875 21.390625 C 98.035156 22.445312 98.527344 23.761719 98.527344 25.40625 C 98.527344 27.449219 97.902344 29.128906 96.652344 30.445312 C 95.40625 31.761719 93.699219 32.386719 91.5625 32.386719 C 89.460938 32.386719 87.71875 31.761719 86.339844 30.511719 L 84.929688 31.664062 L 83.910156 31.664062 L 83.910156 25.078125 L 85.257812 25.078125 C 86.210938 28.964844 88.34375 30.871094 91.597656 30.871094 C 92.777344 30.871094 93.796875 30.609375 94.648438 30.050781 C 95.503906 29.488281 95.929688 28.796875 95.929688 27.941406 C 95.929688 27.351562 95.703125 26.855469 95.242188 26.492188 C 94.78125 26.132812 93.699219 25.835938 92.023438 25.636719 C 90.347656 25.441406 88.933594 25.175781 87.820312 24.847656 C 86.734375 24.519531 85.816406 23.894531 85.125 23.003906 C 84.402344 22.148438 84.074219 20.960938 84.074219 19.480469 C 84.074219 17.769531 84.664062 16.320312 85.847656 15.101562 C 87.03125 13.882812 88.671875 13.257812 90.773438 13.257812 C 92.253906 13.257812 93.699219 13.6875 95.042969 14.542969 L 96.09375 13.257812 Z M 97.144531 13.257812 "/>
        <path style=" stroke:none;fill-rule:nonzero;fill:rgb(10.588235%,10.588235%,10.588235%);fill-opacity:1;" d="M 117.152344 21.753906 L 106.183594 21.753906 L 106.183594 24.652344 C 106.183594 26.921875 106.378906 28.503906 106.808594 29.390625 C 107.199219 30.28125 108.152344 30.707031 109.632812 30.707031 C 110.914062 30.707031 112.128906 30.28125 113.242188 29.457031 C 114.359375 28.632812 115.214844 27.316406 115.804688 25.574219 L 117.152344 25.574219 C 116.59375 27.84375 115.574219 29.523438 114.097656 30.675781 C 112.621094 31.828125 110.8125 32.386719 108.746094 32.386719 C 105.917969 32.386719 103.621094 31.398438 101.945312 29.457031 C 100.238281 27.515625 99.382812 25.242188 99.382812 22.707031 C 99.382812 20.269531 100.238281 18.066406 101.980469 16.15625 C 103.6875 14.246094 105.855469 13.292969 108.449219 13.292969 C 110.683594 13.292969 112.621094 13.984375 114.261719 15.398438 C 115.90625 16.75 116.890625 18.886719 117.152344 21.753906 Z M 106.214844 20.304688 L 111.011719 20.304688 L 111.011719 18.425781 C 111.011719 16.8125 110.78125 15.761719 110.355469 15.265625 C 109.925781 14.773438 109.304688 14.542969 108.546875 14.542969 C 107.824219 14.542969 107.265625 14.773438 106.839844 15.199219 C 106.414062 15.628906 106.214844 16.714844 106.214844 18.492188 Z M 106.214844 20.304688 "/>
        <path style=" stroke:none;fill-rule:nonzero;fill:rgb(10.588235%,10.588235%,10.588235%);fill-opacity:1;" d="M 123.8125 30.414062 C 123.847656 31.628906 123.617188 31.859375 122.402344 31.828125 L 120.199219 31.828125 C 118.984375 31.859375 118.753906 31.628906 118.789062 30.414062 L 118.789062 2.128906 C 118.753906 0.910156 118.984375 0.679688 120.199219 0.714844 L 122.402344 0.714844 C 123.617188 0.679688 123.847656 0.910156 123.8125 2.128906 Z M 123.8125 30.414062 "/>
        <path style=" stroke:none;fill-rule:nonzero;fill:rgb(10.588235%,10.588235%,10.588235%);fill-opacity:1;" d="M 130.738281 30.414062 C 130.773438 31.628906 130.542969 31.859375 129.328125 31.828125 L 127.128906 31.828125 C 125.910156 31.859375 125.683594 31.628906 125.714844 30.414062 L 125.714844 2.128906 C 125.683594 0.910156 125.910156 0.679688 127.128906 0.714844 L 129.328125 0.714844 C 130.542969 0.679688 130.773438 0.910156 130.738281 2.128906 Z M 130.738281 30.414062 "/>
        <path style=" stroke:none;fill-rule:nonzero;fill:rgb(10.588235%,10.588235%,10.588235%);fill-opacity:1;" d="M 146.316406 29.488281 C 144.707031 31.53125 142.933594 32.386719 140.46875 32.386719 C 135.414062 32.386719 131.636719 28.273438 131.636719 22.804688 C 131.636719 17.40625 135.414062 13.257812 140.339844 13.257812 C 142.769531 13.257812 144.574219 14.113281 146.316406 16.15625 L 146.316406 15.234375 C 146.285156 14.015625 146.515625 13.785156 147.761719 13.816406 L 149.929688 13.816406 C 151.175781 13.785156 151.40625 14.015625 151.375 15.234375 L 151.375 30.378906 C 151.40625 31.597656 151.175781 31.828125 149.929688 31.792969 L 147.761719 31.792969 C 146.515625 31.828125 146.285156 31.597656 146.316406 30.378906 Z M 136.824219 22.804688 C 136.824219 25.570312 139.058594 27.875 141.851562 27.875 C 144.675781 27.875 146.875 25.636719 146.875 22.773438 C 146.875 20.039062 144.609375 17.800781 141.851562 17.800781 C 139.058594 17.769531 136.824219 20.007812 136.824219 22.804688 Z M 136.824219 22.804688 "/>
        <path style=" stroke:none;fill-rule:nonzero;fill:rgb(10.588235%,10.588235%,10.588235%);fill-opacity:1;" d="M 157.472656 15.925781 C 159.117188 14.015625 160.757812 13.257812 162.925781 13.257812 C 165.421875 13.257812 167.164062 14.246094 168.507812 16.550781 C 169.921875 14.34375 171.859375 13.257812 174.386719 13.257812 C 176.554688 13.257812 178.460938 14.246094 179.414062 15.824219 C 180.070312 16.914062 180.367188 18.195312 180.367188 20.171875 L 180.367188 30.378906 C 180.398438 31.597656 180.167969 31.828125 178.953125 31.792969 L 176.753906 31.792969 C 175.539062 31.828125 175.308594 31.597656 175.339844 30.378906 L 175.339844 21.984375 C 175.339844 20.535156 175.242188 19.875 174.914062 19.117188 C 174.453125 18.128906 173.535156 17.539062 172.386719 17.539062 C 171.105469 17.539062 169.988281 18.195312 169.429688 19.316406 C 169.070312 20.105469 168.902344 21.027344 168.902344 22.609375 L 168.902344 30.410156 C 168.9375 31.628906 168.707031 31.859375 167.492188 31.828125 L 165.292969 31.828125 C 164.074219 31.859375 163.847656 31.628906 163.878906 30.410156 L 163.878906 22.246094 C 163.878906 20.699219 163.78125 19.910156 163.515625 19.25 C 163.089844 18.195312 161.972656 17.503906 160.824219 17.503906 C 159.707031 17.503906 158.492188 18.164062 158 19.117188 C 157.574219 19.875 157.410156 20.832031 157.410156 22.574219 L 157.410156 30.378906 C 157.441406 31.597656 157.210938 31.828125 155.996094 31.792969 L 153.796875 31.792969 C 152.582031 31.828125 152.351562 31.597656 152.382812 30.378906 L 152.382812 15.234375 C 152.351562 14.015625 152.582031 13.785156 153.796875 13.816406 L 155.996094 13.816406 C 157.210938 13.785156 157.441406 14.015625 157.410156 15.234375 L 157.410156 15.925781 Z M 157.472656 15.925781 "/>
        <path style=" stroke:none;fill-rule:nonzero;fill:rgb(10.588235%,10.588235%,10.588235%);fill-opacity:1;" d="M 195.933594 29.488281 C 194.324219 31.53125 192.550781 32.386719 190.085938 32.386719 C 185.027344 32.386719 181.25 28.273438 181.25 22.804688 C 181.25 17.40625 185.027344 13.257812 189.957031 13.257812 C 192.386719 13.257812 194.191406 14.113281 195.933594 16.15625 L 195.933594 15.234375 C 195.902344 14.015625 196.128906 13.785156 197.378906 13.816406 L 199.546875 13.816406 C 200.792969 13.785156 201.023438 14.015625 200.992188 15.234375 L 200.992188 30.378906 C 201.023438 31.597656 200.792969 31.828125 199.546875 31.792969 L 197.378906 31.792969 C 196.128906 31.828125 195.902344 31.597656 195.933594 30.378906 Z M 186.472656 22.804688 C 186.472656 25.570312 188.707031 27.875 191.5 27.875 C 194.324219 27.875 196.523438 25.636719 196.523438 22.773438 C 196.523438 20.039062 194.257812 17.800781 191.5 17.800781 C 188.707031 17.769531 186.472656 20.007812 186.472656 22.804688 Z M 186.472656 22.804688 "/>
        <path style=" stroke:none;fill-rule:nonzero;fill:rgb(10.588235%,10.588235%,10.588235%);fill-opacity:1;" d="M 30.480469 0.976562 L 8.835938 0.976562 C 3.972656 0.976562 0 4.929688 0 9.835938 L 0 29.625 C 0 33.902344 3.054688 37.492188 7.09375 38.316406 C 7.390625 37.097656 8.570312 36.175781 9.953125 36.175781 C 10.28125 36.175781 10.542969 35.910156 10.542969 35.582031 C 10.542969 35.253906 10.28125 34.988281 9.953125 34.988281 C 8.34375 34.988281 7.027344 33.773438 7.027344 32.222656 C 7.027344 30.710938 8.34375 29.457031 9.953125 29.457031 C 10.28125 29.457031 10.542969 29.195312 10.542969 28.867188 C 10.542969 28.535156 10.28125 28.273438 9.953125 28.273438 C 8.34375 28.273438 7.027344 27.054688 7.027344 25.507812 C 7.027344 23.960938 8.34375 22.742188 9.953125 22.742188 C 10.28125 22.742188 10.542969 22.476562 10.542969 22.148438 C 10.542969 21.820312 10.28125 21.554688 9.953125 21.554688 C 8.34375 21.554688 7.027344 20.339844 7.027344 18.789062 C 7.027344 17.671875 7.785156 16.617188 8.902344 16.222656 C 9.128906 16.125 9.292969 15.925781 9.292969 15.664062 L 9.292969 8.1875 C 9.292969 5.292969 11.660156 2.855469 14.679688 2.589844 L 14.679688 8.1875 C 14.679688 8.519531 14.945312 8.78125 15.273438 8.78125 C 15.601562 8.78125 15.863281 8.519531 15.863281 8.1875 C 15.863281 5.292969 18.226562 2.855469 21.25 2.589844 L 21.25 15.597656 C 21.25 15.925781 21.511719 16.191406 21.839844 16.191406 L 27.324219 16.191406 C 30.644531 16.191406 33.433594 18.59375 33.761719 21.6875 L 27.324219 21.6875 C 26.996094 21.6875 26.734375 21.953125 26.734375 22.28125 C 26.734375 22.609375 26.996094 22.875 27.324219 22.875 C 30.644531 22.875 33.433594 25.277344 33.761719 28.371094 L 21.21875 28.371094 C 20.886719 28.371094 20.625 28.636719 20.625 28.964844 C 20.625 29.292969 20.886719 29.558594 21.21875 29.558594 C 22.828125 29.558594 24.140625 30.777344 24.140625 32.324219 C 24.140625 33.835938 22.828125 35.089844 21.21875 35.089844 C 20.886719 35.089844 20.625 35.351562 20.625 35.679688 C 20.625 36.011719 20.886719 36.273438 21.21875 36.273438 C 22.695312 36.273438 23.910156 37.292969 24.105469 38.613281 L 30.480469 38.613281 C 35.371094 38.613281 39.3125 34.628906 39.3125 29.753906 L 39.3125 9.835938 C 39.347656 4.929688 35.371094 0.976562 30.480469 0.976562 Z M 30.480469 0.976562 "/>
        <path style=" stroke:none;fill-rule:nonzero;fill:rgb(10.588235%,10.588235%,10.588235%);fill-opacity:1;" d="M 19.277344 18.300781 C 17.4375 18.300781 15.894531 19.550781 15.402344 21.261719 L 23.117188 21.261719 C 22.691406 19.550781 21.117188 18.300781 19.277344 18.300781 Z M 19.277344 18.300781 "/>
    </g>
</svg>
